<?xml version="1.0" standalone="no"?>
<!DOCTYPE svg PUBLIC "-//W3C//DTD SVG 20010904//EN"
 "http://www.w3.org/TR/2001/REC-SVG-20010904/DTD/svg10.dtd">
<svg version="1.0" xmlns="http://www.w3.org/2000/svg"
 width="51.000000pt" height="51.000000pt" viewBox="0 0 51.000000 51.000000"
 preserveAspectRatio="xMidYMid meet">

<g transform="translate(0.000000,51.000000) scale(0.100000,-0.100000)"
fill="#000000" stroke="none">
<path d="M70 482 c-58 -29 -70 -66 -70 -225 0 -149 10 -192 51 -221 33 -22
345 -24 388 -1 32 16 54 53 24 40 -34 -15 -154 -17 -200 -4 -118 33 -175 168
-118 279 21 40 79 87 122 99 51 15 120 13 166 -3 47 -17 46 -1 -3 32 -30 20
-44 22 -179 22 -119 0 -152 -3 -181 -18z"/>
<path d="M310 330 c-11 -7 1 -10 40 -10 39 0 51 3 40 10 -8 5 -26 10 -40 10
-14 0 -32 -5 -40 -10z"/>
<path d="M260 206 c0 -26 42 -46 97 -46 42 0 55 4 65 20 7 11 23 20 35 20 13
0 23 5 23 10 0 6 -43 10 -110 10 -89 0 -110 -3 -110 -14z"/>
</g>
</svg>
